<?xml version="1.0" encoding="UTF-8" standalone="no"?>
<!-- Created with Inkscape (http://www.inkscape.org/) -->
<svg
   xmlns:dc="http://purl.org/dc/elements/1.1/"
   xmlns:cc="http://web.resource.org/cc/"
   xmlns:rdf="http://www.w3.org/1999/02/22-rdf-syntax-ns#"
   xmlns:svg="http://www.w3.org/2000/svg"
   xmlns="http://www.w3.org/2000/svg"
   xmlns:xlink="http://www.w3.org/1999/xlink"
   xmlns:sodipodi="http://sodipodi.sourceforge.net/DTD/sodipodi-0.dtd"
   xmlns:inkscape="http://www.inkscape.org/namespaces/inkscape"
   id="svg1923"
   sodipodi:version="0.32"
   inkscape:version="0.44.1"
   width="62.092838"
   height="47.41114"
   version="1.0"
   sodipodi:docbase="C:\Documents and Settings\Owner\My Documents\My Pictures"
   sodipodi:docname="Tricolor.svg">
  <metadata
     id="metadata1928">
    <rdf:RDF>
      <cc:Work
         rdf:about="">
        <dc:format>image/svg+xml</dc:format>
        <dc:type
           rdf:resource="http://purl.org/dc/dcmitype/StillImage" />
      </cc:Work>
    </rdf:RDF>
  </metadata>
  <defs
     id="defs1926">
    <linearGradient
       id="linearGradient6472">
      <stop
         id="stop6492"
         offset="0"
         style="stop-color:black;stop-opacity:0.49803922;" />
      <stop
         style="stop-color:black;stop-opacity:0.49484536;"
         offset="0.6785714"
         id="stop7389" />
      <stop
         style="stop-color:black;stop-opacity:0.24705882;"
         offset="1"
         id="stop6494" />
    </linearGradient>
    <radialGradient
       inkscape:collect="always"
       xlink:href="#linearGradient6472"
       id="radialGradient7381"
       cx="33.159149"
       cy="14.037135"
       fx="33.159149"
       fy="14.037135"
       r="29.793104"
       gradientTransform="matrix(1,0,0,0.418269,-2.721485,8.022598)"
       gradientUnits="userSpaceOnUse"
       spreadMethod="pad" />
    <radialGradient
       inkscape:collect="always"
       xlink:href="#linearGradient6472"
       id="radialGradient7383"
       cx="33.732098"
       cy="24.891247"
       fx="33.732098"
       fy="24.891247"
       r="29.793102"
       gradientTransform="matrix(1,0,0,0.418269,-2.721485,14.33677)"
       gradientUnits="userSpaceOnUse"
       spreadMethod="pad" />
    <radialGradient
       inkscape:collect="always"
       xlink:href="#linearGradient6472"
       id="radialGradient7385"
       cx="35.021221"
       cy="34.9496"
       fx="35.021221"
       fy="34.9496"
       r="29.793104"
       gradientTransform="matrix(1,0,0,0.418269,-2.721485,20.33127)"
       gradientUnits="userSpaceOnUse"
       spreadMethod="pad" />
  </defs>
  <sodipodi:namedview
     inkscape:window-height="994"
     inkscape:window-width="1680"
     inkscape:pageshadow="2"
     inkscape:pageopacity="0.0"
     guidetolerance="10.0"
     gridtolerance="10.0"
     objecttolerance="10.0"
     borderopacity="1.0"
     bordercolor="#666666"
     pagecolor="#ffffff"
     id="base"
     inkscape:zoom="6.9814815"
     inkscape:cx="36.5"
     inkscape:cy="27"
     inkscape:window-x="-4"
     inkscape:window-y="-4"
     inkscape:current-layer="svg1923" />
  <path
     style="fill:url(#radialGradient7381);fill-opacity:1;fill-rule:evenodd;stroke:none;stroke-width:1px;stroke-linecap:butt;stroke-linejoin:miter;stroke-opacity:1"
     d="M 0.6445624,26.355437 C 4.4832755,12.841977 11.873127,5.432156 30.437667,5.013263 C 41.541443,5.209314 52.932389,4.661165 60.23077,1.432361 C 60.188551,1.47458 51.843958,20.037445 27.716181,19.623342 C 10.578417,19.078224 5.9142935,22.820919 0.6445624,26.355437 z "
     id="path5581"
     sodipodi:nodetypes="ccccc" />
  <path
     style="opacity:1;color:black;fill:url(#radialGradient7383);fill-opacity:1;fill-rule:evenodd;stroke:none;stroke-width:1px;stroke-linecap:butt;stroke-linejoin:miter;marker:none;marker-start:none;marker-mid:none;marker-end:none;stroke-miterlimit:4;stroke-dasharray:none;stroke-dashoffset:0;stroke-opacity:1;visibility:visible;display:inline;overflow:visible"
     d="M 1.2175067,37.209548 C 5.0562195,23.696088 12.446071,16.286267 31.010611,15.867373 C 42.114387,16.063424 53.505333,15.515276 60.803714,12.286471 C 60.761495,12.32869 52.416902,30.891556 28.289125,30.477453 C 11.151361,29.932335 6.4872375,33.67503 1.2175067,37.209548 z "
     id="path5583"
     sodipodi:nodetypes="ccccc" />
  <path
     style="fill:url(#radialGradient7385);fill-opacity:1;fill-rule:evenodd;stroke:none;stroke-width:1px;stroke-linecap:butt;stroke-linejoin:miter;stroke-opacity:1"
     d="M 2.5066315,47.41114 C 6.3453445,33.89768 13.735197,26.487859 32.299737,26.068965 C 43.403513,26.265016 54.794459,25.716868 62.092839,22.488063 C 62.05062,22.530282 53.706028,41.093148 29.578251,40.679045 C 12.440487,40.133927 7.7763628,43.876622 2.5066315,47.41114 z "
     id="path5585"
     sodipodi:nodetypes="ccccc" />
  <path
     style="fill:#ffcc65;fill-opacity:1;fill-rule:evenodd;stroke:none;stroke-width:1px;stroke-linecap:butt;stroke-linejoin:miter;stroke-opacity:1"
     d="M 0,24.923077 C 3.8387128,11.409617 11.228564,3.9997954 29.793104,3.5809019 C 40.89688,3.7769529 52.287826,3.2288042 59.586207,-3.1086245e-015 C 59.543988,0.04221899 51.199395,18.605085 27.071618,18.190982 C 9.9338538,17.645864 5.269731,21.388559 0,24.923077 z "
     id="path3715"
     sodipodi:nodetypes="ccccc" />
  <path
     style="opacity:1;color:black;fill:white;fill-opacity:1;fill-rule:evenodd;stroke:none;stroke-width:1px;stroke-linecap:butt;stroke-linejoin:miter;marker:none;marker-start:none;marker-mid:none;marker-end:none;stroke-miterlimit:4;stroke-dasharray:none;stroke-dashoffset:0;stroke-opacity:1;visibility:visible;display:inline;overflow:visible"
     d="M 0.5729443,35.777188 C 4.2900706,22.263728 11.222638,14.853907 30.366048,14.435013 C 41.469824,14.631064 52.86077,14.082916 60.159151,10.854111 C 60.116932,10.89633 51.772339,29.459196 27.644562,29.045093 C 10.506798,28.499975 5.8426753,32.24267 0.5729443,35.777188 z "
     id="path3721"
     sodipodi:nodetypes="ccccc" />
  <path
     style="fill:#32cc32;fill-opacity:1;fill-rule:evenodd;stroke:none;stroke-width:1px;stroke-linecap:butt;stroke-linejoin:miter;stroke-opacity:1"
     d="M 1.8620693,45.97878 C 5.7007823,32.46532 13.090634,25.055499 31.655174,24.636605 C 42.75895,24.832656 54.149896,24.284508 61.448276,21.055703 C 61.406057,21.097922 53.061465,39.660788 28.933688,39.246685 C 11.795924,38.701567 7.1318003,42.444262 1.8620693,45.97878 z "
     id="path3723"
     sodipodi:nodetypes="ccccc" />
</svg>
